<svg xmlns="http://www.w3.org/2000/svg" viewBox="0 0 620 400" width="620" height="400" font-family="Arial, Helvetica, sans-serif"><rect width="620" height="400" fill="#ffffff"/><text x="310.0" y="26" text-anchor="middle" font-size="16" font-weight="bold" fill="#111">Target vs Actual Production of AC Machines (in thousands)</text><line x1="60" y1="310.0" x2="610" y2="310.0" stroke="#ddd"/><text x="52" y="314.0" text-anchor="end" font-size="12" fill="#333">0</text><line x1="60" y1="266.6666666666667" x2="610" y2="266.6666666666667" stroke="#ddd"/><text x="52" y="270.6666666666667" text-anchor="end" font-size="12" fill="#333">20</text><line x1="60" y1="223.33333333333334" x2="610" y2="223.33333333333334" stroke="#ddd"/><text x="52" y="227.33333333333334" text-anchor="end" font-size="12" fill="#333">40</text><line x1="60" y1="180.0" x2="610" y2="180.0" stroke="#ddd"/><text x="52" y="184.0" text-anchor="end" font-size="12" fill="#333">60</text><line x1="60" y1="136.66666666666669" x2="610" y2="136.66666666666669" stroke="#ddd"/><text x="52" y="140.66666666666669" text-anchor="end" font-size="12" fill="#333">80</text><line x1="60" y1="93.33333333333331" x2="610" y2="93.33333333333331" stroke="#ddd"/><text x="52" y="97.33333333333331" text-anchor="end" font-size="12" fill="#333">100</text><line x1="60" y1="50.0" x2="610" y2="50.0" stroke="#ddd"/><text x="52" y="54.0" text-anchor="end" font-size="12" fill="#333">120</text><line x1="60" y1="50" x2="60" y2="310" stroke="#333"/><line x1="60" y1="310" x2="610" y2="310" stroke="#333"/><rect x="76.2" y="136.7" width="35.6" height="173.3" fill="#3b82f6"/><text x="94.0" y="132.7" text-anchor="middle" font-size="12" fill="#111">80</text><rect x="111.8" y="201.7" width="35.6" height="108.3" fill="#f97316"/><text x="129.7" y="197.7" text-anchor="middle" font-size="12" fill="#111">50</text><text x="114.0" y="330" text-anchor="middle" font-size="13" fill="#111">March</text><rect x="184.2" y="180.0" width="35.6" height="130.0" fill="#3b82f6"/><text x="202.0" y="176.0" text-anchor="middle" font-size="12" fill="#111">60</text><rect x="219.8" y="201.7" width="35.6" height="108.3" fill="#f97316"/><text x="237.7" y="197.7" text-anchor="middle" font-size="12" fill="#111">50</text><text x="222.0" y="330" text-anchor="middle" font-size="13" fill="#111">April</text><rect x="292.2" y="158.3" width="35.6" height="151.7" fill="#3b82f6"/><text x="310.0" y="154.3" text-anchor="middle" font-size="12" fill="#111">70</text><rect x="327.8" y="71.7" width="35.6" height="238.3" fill="#f97316"/><text x="345.7" y="67.7" text-anchor="middle" font-size="12" fill="#111">110</text><text x="330.0" y="330" text-anchor="middle" font-size="13" fill="#111">May</text><rect x="400.2" y="223.3" width="35.6" height="86.7" fill="#3b82f6"/><text x="418.0" y="219.3" text-anchor="middle" font-size="12" fill="#111">40</text><rect x="435.8" y="201.7" width="35.6" height="108.3" fill="#f97316"/><text x="453.7" y="197.7" text-anchor="middle" font-size="12" fill="#111">50</text><text x="438.0" y="330" text-anchor="middle" font-size="13" fill="#111">June</text><rect x="508.2" y="158.3" width="35.6" height="151.7" fill="#3b82f6"/><text x="526.0" y="154.3" text-anchor="middle" font-size="12" fill="#111">70</text><rect x="543.8" y="245.0" width="35.6" height="65.0" fill="#f97316"/><text x="561.7" y="241.0" text-anchor="middle" font-size="12" fill="#111">30</text><text x="546.0" y="330" text-anchor="middle" font-size="13" fill="#111">July</text><rect x="200.0" y="348" width="14" height="14" fill="#3b82f6"/><text x="220.0" y="360" font-size="13">Target</text><rect x="320.0" y="348" width="14" height="14" fill="#f97316"/><text x="340.0" y="360" font-size="13">Actual</text><text x="16" y="180.0" font-size="12" fill="#333" transform="rotate(-90 16 180.0)" text-anchor="middle">Production (thousands)</text></svg>