<svg viewBox="0 0 640 420" xmlns="http://www.w3.org/2000/svg">
                <rect width="640" height="420" fill="#ffffff"/>
                <text x="320" y="20" font-size="14" text-anchor="middle" fill="#0f172a" font-weight="700">Ratio of marks of Hindi to English of 7 students in an examination</text>
                <line x1="55" y1="365" x2="610" y2="365" stroke="#0f172a" stroke-width="2"/>
                <line x1="55" y1="40" x2="55" y2="365" stroke="#0f172a" stroke-width="2"/>
                <text x="320" y="406" font-size="11" text-anchor="middle" fill="#64748b">Student</text>
                <text x="47" y="369" font-size="10" text-anchor="end" fill="#64748b">0.0</text><line x1="55" y1="365" x2="610" y2="365" stroke="#f1f5f9" stroke-width="1"/><text x="47" y="322.57142857142856" font-size="10" text-anchor="end" fill="#64748b">0.2</text><line x1="55" y1="318.57142857142856" x2="610" y2="318.57142857142856" stroke="#f1f5f9" stroke-width="1"/><text x="47" y="276.14285714285717" font-size="10" text-anchor="end" fill="#64748b">0.4</text><line x1="55" y1="272.14285714285717" x2="610" y2="272.14285714285717" stroke="#f1f5f9" stroke-width="1"/><text x="47" y="229.71428571428572" font-size="10" text-anchor="end" fill="#64748b">0.6</text><line x1="55" y1="225.71428571428572" x2="610" y2="225.71428571428572" stroke="#f1f5f9" stroke-width="1"/><text x="47" y="183.2857142857143" font-size="10" text-anchor="end" fill="#64748b">0.8</text><line x1="55" y1="179.2857142857143" x2="610" y2="179.2857142857143" stroke="#f1f5f9" stroke-width="1"/><text x="47" y="136.8571428571429" font-size="10" text-anchor="end" fill="#64748b">1.0</text><line x1="55" y1="132.8571428571429" x2="610" y2="132.8571428571429" stroke="#f1f5f9" stroke-width="1"/><text x="47" y="90.4285714285715" font-size="10" text-anchor="end" fill="#64748b">1.2</text><line x1="55" y1="86.4285714285715" x2="610" y2="86.4285714285715" stroke="#f1f5f9" stroke-width="1"/><text x="47" y="44.00000000000006" font-size="10" text-anchor="end" fill="#64748b">1.4</text><line x1="55" y1="40.00000000000006" x2="610" y2="40.00000000000006" stroke="#f1f5f9" stroke-width="1"/><line x1="55" y1="132.8571428571429" x2="610" y2="132.8571428571429" stroke="#fca5a5" stroke-width="1" stroke-dasharray="4 3"/>
                <path d="M 55.0,86.4 L 147.5,225.7 L 240.0,167.7 L 332.5,202.5 L 425.0,121.3 L 517.5,144.5 L 610.0,237.3 " fill="none" stroke="#0ea5e9" stroke-width="2.5" stroke-linecap="round" stroke-linejoin="round"/>
                <circle cx="55.0" cy="86.4" r="4" fill="#0ea5e9" stroke="#fff" stroke-width="1.5"/><text x="55.0" y="76.4" font-size="10" text-anchor="middle" fill="#0f172a" font-weight="600">1.20</text><text x="55.0" y="383" font-size="10" text-anchor="middle" fill="#64748b">1</text><circle cx="147.5" cy="225.7" r="4" fill="#0ea5e9" stroke="#fff" stroke-width="1.5"/><text x="147.5" y="215.7" font-size="10" text-anchor="middle" fill="#0f172a" font-weight="600">0.60</text><text x="147.5" y="383" font-size="10" text-anchor="middle" fill="#64748b">2</text><circle cx="240.0" cy="167.7" r="4" fill="#0ea5e9" stroke="#fff" stroke-width="1.5"/><text x="240.0" y="157.7" font-size="10" text-anchor="middle" fill="#0f172a" font-weight="600">0.85</text><text x="240.0" y="383" font-size="10" text-anchor="middle" fill="#64748b">3</text><circle cx="332.5" cy="202.5" r="4" fill="#0ea5e9" stroke="#fff" stroke-width="1.5"/><text x="332.5" y="192.5" font-size="10" text-anchor="middle" fill="#0f172a" font-weight="600">0.70</text><text x="332.5" y="383" font-size="10" text-anchor="middle" fill="#64748b">4</text><circle cx="425.0" cy="121.3" r="4" fill="#0ea5e9" stroke="#fff" stroke-width="1.5"/><text x="425.0" y="111.3" font-size="10" text-anchor="middle" fill="#0f172a" font-weight="600">1.05</text><text x="425.0" y="383" font-size="10" text-anchor="middle" fill="#64748b">5</text><circle cx="517.5" cy="144.5" r="4" fill="#0ea5e9" stroke="#fff" stroke-width="1.5"/><text x="517.5" y="134.5" font-size="10" text-anchor="middle" fill="#0f172a" font-weight="600">0.95</text><text x="517.5" y="383" font-size="10" text-anchor="middle" fill="#64748b">6</text><circle cx="610.0" cy="237.3" r="4" fill="#0ea5e9" stroke="#fff" stroke-width="1.5"/><text x="610.0" y="227.3" font-size="10" text-anchor="middle" fill="#0f172a" font-weight="600">0.55</text><text x="610.0" y="383" font-size="10" text-anchor="middle" fill="#64748b">7</text>
            </svg>