<svg viewBox="0 0 640 420" xmlns="http://www.w3.org/2000/svg">
                <rect width="640" height="420" fill="#ffffff"/>
                <text x="320" y="20" font-size="14" text-anchor="middle" fill="#0f172a" font-weight="700">Company Earnings (in ₹ million)</text>
                <text x="320" y="38" font-size="11" text-anchor="middle" fill="#64748b">(1991-92 to 1998-99)</text>
                <line x1="60" y1="370" x2="620" y2="370" stroke="#0f172a" stroke-width="2"/>
                <line x1="60" y1="30" x2="60" y2="370" stroke="#0f172a" stroke-width="2"/>
                <text x="52" y="374" font-size="11" text-anchor="end" fill="#64748b">0</text><line x1="56" y1="370" x2="60" y2="370" stroke="#cbd5e1" stroke-width="1"/><text x="52" y="303.2321924144311" font-size="11" text-anchor="end" fill="#64748b">900</text><line x1="56" y1="299.2321924144311" x2="60" y2="299.2321924144311" stroke="#cbd5e1" stroke-width="1"/><text x="52" y="232.46438482886217" font-size="11" text-anchor="end" fill="#64748b">1800</text><line x1="56" y1="228.46438482886217" x2="60" y2="228.46438482886217" stroke="#cbd5e1" stroke-width="1"/><text x="52" y="161.69657724329323" font-size="11" text-anchor="end" fill="#64748b">2700</text><line x1="56" y1="157.69657724329323" x2="60" y2="157.69657724329323" stroke="#cbd5e1" stroke-width="1"/><text x="52" y="90.92876965772433" font-size="11" text-anchor="end" fill="#64748b">3600</text><line x1="56" y1="86.92876965772433" x2="60" y2="86.92876965772433" stroke="#cbd5e1" stroke-width="1"/>
                <rect x="77.5" y="115.2" width="35.0" height="254.8" fill="#0ea5e9" rx="2"/><text x="95.0" y="107.2" font-size="11" text-anchor="middle" fill="#0f172a" font-weight="600">3240</text><text x="95.0" y="386" font-size="10" text-anchor="middle" fill="#64748b">1991-92</text><rect x="147.5" y="97.9" width="35.0" height="272.1" fill="#0ea5e9" rx="2"/><text x="165.0" y="89.9" font-size="11" text-anchor="middle" fill="#0f172a" font-weight="600">3460</text><text x="165.0" y="386" font-size="10" text-anchor="middle" fill="#64748b">1992-93</text><rect x="217.5" y="74.3" width="35.0" height="295.7" fill="#0ea5e9" rx="2"/><text x="235.0" y="66.3" font-size="11" text-anchor="middle" fill="#0f172a" font-weight="600">3760</text><text x="235.0" y="386" font-size="10" text-anchor="middle" fill="#64748b">1993-94</text><rect x="287.5" y="336.2" width="35.0" height="33.8" fill="#0ea5e9" rx="2"/><text x="305.0" y="328.2" font-size="11" text-anchor="middle" fill="#0f172a" font-weight="600">430</text><text x="305.0" y="386" font-size="10" text-anchor="middle" fill="#64748b">1994-95</text><rect x="357.5" y="205.7" width="35.0" height="164.3" fill="#0ea5e9" rx="2"/><text x="375.0" y="197.7" font-size="11" text-anchor="middle" fill="#0f172a" font-weight="600">2090</text><text x="375.0" y="386" font-size="10" text-anchor="middle" fill="#64748b">1995-96</text><rect x="427.5" y="281.9" width="35.0" height="88.1" fill="#0ea5e9" rx="2"/><text x="445.0" y="273.9" font-size="11" text-anchor="middle" fill="#0f172a" font-weight="600">1120</text><text x="445.0" y="386" font-size="10" text-anchor="middle" fill="#64748b">1996-97</text><rect x="497.5" y="196.2" width="35.0" height="173.8" fill="#0ea5e9" rx="2"/><text x="515.0" y="188.2" font-size="11" text-anchor="middle" fill="#0f172a" font-weight="600">2210</text><text x="515.0" y="386" font-size="10" text-anchor="middle" fill="#64748b">1997-98</text><rect x="567.5" y="115.2" width="35.0" height="254.8" fill="#0ea5e9" rx="2"/><text x="585.0" y="107.2" font-size="11" text-anchor="middle" fill="#0f172a" font-weight="600">3240</text><text x="585.0" y="386" font-size="10" text-anchor="middle" fill="#64748b">1998-99</text>
            </svg>