<svg viewBox="0 0 640 420" xmlns="http://www.w3.org/2000/svg">
                <rect width="640" height="420" fill="#ffffff"/>
                <text x="320" y="20" font-size="14" text-anchor="middle" fill="#0f172a" font-weight="700">Company Earnings (in ₹ million)</text>
                <text x="320" y="38" font-size="11" text-anchor="middle" fill="#64748b">(1991-92 to 1998-99)</text>
                <line x1="60" y1="370" x2="620" y2="370" stroke="#0f172a" stroke-width="2"/>
                <line x1="60" y1="30" x2="60" y2="370" stroke="#0f172a" stroke-width="2"/>
                <text x="52" y="374" font-size="11" text-anchor="end" fill="#64748b">0</text><line x1="56" y1="370" x2="60" y2="370" stroke="#cbd5e1" stroke-width="1"/><text x="52" y="300.58749631956033" font-size="11" text-anchor="end" fill="#64748b">1100</text><line x1="56" y1="296.58749631956033" x2="60" y2="296.58749631956033" stroke="#cbd5e1" stroke-width="1"/><text x="52" y="227.17499263912063" font-size="11" text-anchor="end" fill="#64748b">2200</text><line x1="56" y1="223.17499263912063" x2="60" y2="223.17499263912063" stroke="#cbd5e1" stroke-width="1"/><text x="52" y="153.76248895868096" font-size="11" text-anchor="end" fill="#64748b">3300</text><line x1="56" y1="149.76248895868096" x2="60" y2="149.76248895868096" stroke="#cbd5e1" stroke-width="1"/><text x="52" y="80.34998527824126" font-size="11" text-anchor="end" fill="#64748b">4400</text><line x1="56" y1="76.34998527824126" x2="60" y2="76.34998527824126" stroke="#cbd5e1" stroke-width="1"/>
                <rect x="77.5" y="178.5" width="35.0" height="191.5" fill="#0ea5e9" rx="2"/><text x="95.0" y="170.5" font-size="11" text-anchor="middle" fill="#0f172a" font-weight="600">2870</text><text x="95.0" y="386" font-size="10" text-anchor="middle" fill="#64748b">1991-92</text><rect x="147.5" y="213.8" width="35.0" height="156.2" fill="#0ea5e9" rx="2"/><text x="165.0" y="205.8" font-size="11" text-anchor="middle" fill="#0f172a" font-weight="600">2340</text><text x="165.0" y="386" font-size="10" text-anchor="middle" fill="#64748b">1992-93</text><rect x="217.5" y="104.4" width="35.0" height="265.6" fill="#0ea5e9" rx="2"/><text x="235.0" y="96.4" font-size="11" text-anchor="middle" fill="#0f172a" font-weight="600">3980</text><text x="235.0" y="386" font-size="10" text-anchor="middle" fill="#64748b">1993-94</text><rect x="287.5" y="205.2" width="35.0" height="164.8" fill="#0ea5e9" rx="2"/><text x="305.0" y="197.2" font-size="11" text-anchor="middle" fill="#0f172a" font-weight="600">2470</text><text x="305.0" y="386" font-size="10" text-anchor="middle" fill="#64748b">1994-95</text><rect x="357.5" y="89.7" width="35.0" height="280.3" fill="#0ea5e9" rx="2"/><text x="375.0" y="81.7" font-size="11" text-anchor="middle" fill="#0f172a" font-weight="600">4200</text><text x="375.0" y="386" font-size="10" text-anchor="middle" fill="#64748b">1995-96</text><rect x="427.5" y="239.9" width="35.0" height="130.1" fill="#0ea5e9" rx="2"/><text x="445.0" y="231.9" font-size="11" text-anchor="middle" fill="#0f172a" font-weight="600">1950</text><text x="445.0" y="386" font-size="10" text-anchor="middle" fill="#64748b">1996-97</text><rect x="497.5" y="74.3" width="35.0" height="295.7" fill="#0ea5e9" rx="2"/><text x="515.0" y="66.3" font-size="11" text-anchor="middle" fill="#0f172a" font-weight="600">4430</text><text x="515.0" y="386" font-size="10" text-anchor="middle" fill="#64748b">1997-98</text><rect x="567.5" y="108.4" width="35.0" height="261.6" fill="#0ea5e9" rx="2"/><text x="585.0" y="100.4" font-size="11" text-anchor="middle" fill="#0f172a" font-weight="600">3920</text><text x="585.0" y="386" font-size="10" text-anchor="middle" fill="#64748b">1998-99</text>
            </svg>