<svg viewBox="0 0 640 420" xmlns="http://www.w3.org/2000/svg">
                <rect width="640" height="420" fill="#ffffff"/>
                <text x="320" y="20" font-size="14" text-anchor="middle" fill="#0f172a" font-weight="700">Company Earnings (in ₹ million)</text>
                <text x="320" y="38" font-size="11" text-anchor="middle" fill="#64748b">(1991-92 to 1998-99)</text>
                <line x1="60" y1="370" x2="620" y2="370" stroke="#0f172a" stroke-width="2"/>
                <line x1="60" y1="30" x2="60" y2="370" stroke="#0f172a" stroke-width="2"/>
                <text x="52" y="374" font-size="11" text-anchor="end" fill="#64748b">0</text><line x1="56" y1="370" x2="60" y2="370" stroke="#cbd5e1" stroke-width="1"/><text x="52" y="303.3261735666032" font-size="11" text-anchor="end" fill="#64748b">1200</text><line x1="56" y1="299.3261735666032" x2="60" y2="299.3261735666032" stroke="#cbd5e1" stroke-width="1"/><text x="52" y="232.65234713320632" font-size="11" text-anchor="end" fill="#64748b">2400</text><line x1="56" y1="228.65234713320632" x2="60" y2="228.65234713320632" stroke="#cbd5e1" stroke-width="1"/><text x="52" y="161.97852069980945" font-size="11" text-anchor="end" fill="#64748b">3600</text><line x1="56" y1="157.97852069980945" x2="60" y2="157.97852069980945" stroke="#cbd5e1" stroke-width="1"/><text x="52" y="91.30469426641264" font-size="11" text-anchor="end" fill="#64748b">4800</text><line x1="56" y1="87.30469426641264" x2="60" y2="87.30469426641264" stroke="#cbd5e1" stroke-width="1"/>
                <rect x="77.5" y="195.7" width="35.0" height="174.3" fill="#0ea5e9" rx="2"/><text x="95.0" y="187.7" font-size="11" text-anchor="middle" fill="#0f172a" font-weight="600">2960</text><text x="95.0" y="386" font-size="10" text-anchor="middle" fill="#64748b">1991-92</text><rect x="147.5" y="322.3" width="35.0" height="47.7" fill="#0ea5e9" rx="2"/><text x="165.0" y="314.3" font-size="11" text-anchor="middle" fill="#0f172a" font-weight="600">810</text><text x="165.0" y="386" font-size="10" text-anchor="middle" fill="#64748b">1992-93</text><rect x="217.5" y="269.9" width="35.0" height="100.1" fill="#0ea5e9" rx="2"/><text x="235.0" y="261.9" font-size="11" text-anchor="middle" fill="#0f172a" font-weight="600">1700</text><text x="235.0" y="386" font-size="10" text-anchor="middle" fill="#64748b">1993-94</text><rect x="287.5" y="301.1" width="35.0" height="68.9" fill="#0ea5e9" rx="2"/><text x="305.0" y="293.1" font-size="11" text-anchor="middle" fill="#0f172a" font-weight="600">1170</text><text x="305.0" y="386" font-size="10" text-anchor="middle" fill="#64748b">1994-95</text><rect x="357.5" y="74.3" width="35.0" height="295.7" fill="#0ea5e9" rx="2"/><text x="375.0" y="66.3" font-size="11" text-anchor="middle" fill="#0f172a" font-weight="600">5020</text><text x="375.0" y="386" font-size="10" text-anchor="middle" fill="#64748b">1995-96</text><rect x="427.5" y="140.9" width="35.0" height="229.1" fill="#0ea5e9" rx="2"/><text x="445.0" y="132.9" font-size="11" text-anchor="middle" fill="#0f172a" font-weight="600">3890</text><text x="445.0" y="386" font-size="10" text-anchor="middle" fill="#64748b">1996-97</text><rect x="497.5" y="335.3" width="35.0" height="34.7" fill="#0ea5e9" rx="2"/><text x="515.0" y="327.3" font-size="11" text-anchor="middle" fill="#0f172a" font-weight="600">590</text><text x="515.0" y="386" font-size="10" text-anchor="middle" fill="#64748b">1997-98</text><rect x="567.5" y="172.7" width="35.0" height="197.3" fill="#0ea5e9" rx="2"/><text x="585.0" y="164.7" font-size="11" text-anchor="middle" fill="#0f172a" font-weight="600">3350</text><text x="585.0" y="386" font-size="10" text-anchor="middle" fill="#64748b">1998-99</text>
            </svg>