<svg viewBox="0 0 640 420" xmlns="http://www.w3.org/2000/svg">
                <rect width="640" height="420" fill="#ffffff"/>
                <text x="320" y="20" font-size="14" text-anchor="middle" fill="#0f172a" font-weight="700">Company Earnings (in ₹ million)</text>
                <text x="320" y="38" font-size="11" text-anchor="middle" fill="#64748b">(1991-92 to 1998-99)</text>
                <line x1="60" y1="370" x2="620" y2="370" stroke="#0f172a" stroke-width="2"/>
                <line x1="60" y1="30" x2="60" y2="370" stroke="#0f172a" stroke-width="2"/>
                <text x="52" y="374" font-size="11" text-anchor="end" fill="#64748b">0</text><line x1="56" y1="370" x2="60" y2="370" stroke="#cbd5e1" stroke-width="1"/><text x="52" y="305.09801031687545" font-size="11" text-anchor="end" fill="#64748b">1100</text><line x1="56" y1="301.09801031687545" x2="60" y2="301.09801031687545" stroke="#cbd5e1" stroke-width="1"/><text x="52" y="236.19602063375092" font-size="11" text-anchor="end" fill="#64748b">2200</text><line x1="56" y1="232.19602063375092" x2="60" y2="232.19602063375092" stroke="#cbd5e1" stroke-width="1"/><text x="52" y="167.2940309506264" font-size="11" text-anchor="end" fill="#64748b">3300</text><line x1="56" y1="163.2940309506264" x2="60" y2="163.2940309506264" stroke="#cbd5e1" stroke-width="1"/><text x="52" y="98.39204126750184" font-size="11" text-anchor="end" fill="#64748b">4400</text><line x1="56" y1="94.39204126750184" x2="60" y2="94.39204126750184" stroke="#cbd5e1" stroke-width="1"/>
                <rect x="77.5" y="123.8" width="35.0" height="246.2" fill="#0ea5e9" rx="2"/><text x="95.0" y="115.8" font-size="11" text-anchor="middle" fill="#0f172a" font-weight="600">3930</text><text x="95.0" y="386" font-size="10" text-anchor="middle" fill="#64748b">1991-92</text><rect x="147.5" y="323.6" width="35.0" height="46.4" fill="#0ea5e9" rx="2"/><text x="165.0" y="315.6" font-size="11" text-anchor="middle" fill="#0f172a" font-weight="600">740</text><text x="165.0" y="386" font-size="10" text-anchor="middle" fill="#64748b">1992-93</text><rect x="217.5" y="333.7" width="35.0" height="36.3" fill="#0ea5e9" rx="2"/><text x="235.0" y="325.7" font-size="11" text-anchor="middle" fill="#0f172a" font-weight="600">580</text><text x="235.0" y="386" font-size="10" text-anchor="middle" fill="#64748b">1993-94</text><rect x="287.5" y="75.0" width="35.0" height="295.0" fill="#0ea5e9" rx="2"/><text x="305.0" y="67.0" font-size="11" text-anchor="middle" fill="#0f172a" font-weight="600">4710</text><text x="305.0" y="386" font-size="10" text-anchor="middle" fill="#64748b">1994-95</text><rect x="357.5" y="78.7" width="35.0" height="291.3" fill="#0ea5e9" rx="2"/><text x="375.0" y="70.7" font-size="11" text-anchor="middle" fill="#0f172a" font-weight="600">4650</text><text x="375.0" y="386" font-size="10" text-anchor="middle" fill="#64748b">1995-96</text><rect x="427.5" y="101.9" width="35.0" height="268.1" fill="#0ea5e9" rx="2"/><text x="445.0" y="93.9" font-size="11" text-anchor="middle" fill="#0f172a" font-weight="600">4280</text><text x="445.0" y="386" font-size="10" text-anchor="middle" fill="#64748b">1996-97</text><rect x="497.5" y="333.0" width="35.0" height="37.0" fill="#0ea5e9" rx="2"/><text x="515.0" y="325.0" font-size="11" text-anchor="middle" fill="#0f172a" font-weight="600">590</text><text x="515.0" y="386" font-size="10" text-anchor="middle" fill="#64748b">1997-98</text><rect x="567.5" y="74.3" width="35.0" height="295.7" fill="#0ea5e9" rx="2"/><text x="585.0" y="66.3" font-size="11" text-anchor="middle" fill="#0f172a" font-weight="600">4720</text><text x="585.0" y="386" font-size="10" text-anchor="middle" fill="#64748b">1998-99</text>
            </svg>