<svg viewBox="0 0 640 420" xmlns="http://www.w3.org/2000/svg">
                <rect width="640" height="420" fill="#ffffff"/>
                <text x="320" y="20" font-size="14" text-anchor="middle" fill="#0f172a" font-weight="700">Company Earnings (in ₹ million)</text>
                <text x="320" y="38" font-size="11" text-anchor="middle" fill="#64748b">(1991-92 to 1998-99)</text>
                <line x1="60" y1="370" x2="620" y2="370" stroke="#0f172a" stroke-width="2"/>
                <line x1="60" y1="30" x2="60" y2="370" stroke="#0f172a" stroke-width="2"/>
                <text x="52" y="374" font-size="11" text-anchor="end" fill="#64748b">0</text><line x1="56" y1="370" x2="60" y2="370" stroke="#cbd5e1" stroke-width="1"/><text x="52" y="305.7200522140777" font-size="11" text-anchor="end" fill="#64748b">1000</text><line x1="56" y1="301.7200522140777" x2="60" y2="301.7200522140777" stroke="#cbd5e1" stroke-width="1"/><text x="52" y="237.44010442815545" font-size="11" text-anchor="end" fill="#64748b">2000</text><line x1="56" y1="233.44010442815545" x2="60" y2="233.44010442815545" stroke="#cbd5e1" stroke-width="1"/><text x="52" y="169.16015664223318" font-size="11" text-anchor="end" fill="#64748b">3000</text><line x1="56" y1="165.16015664223318" x2="60" y2="165.16015664223318" stroke="#cbd5e1" stroke-width="1"/><text x="52" y="100.8802088563109" font-size="11" text-anchor="end" fill="#64748b">4000</text><line x1="56" y1="96.8802088563109" x2="60" y2="96.8802088563109" stroke="#cbd5e1" stroke-width="1"/>
                <rect x="77.5" y="129.0" width="35.0" height="241.0" fill="#0ea5e9" rx="2"/><text x="95.0" y="121.0" font-size="11" text-anchor="middle" fill="#0f172a" font-weight="600">3530</text><text x="95.0" y="386" font-size="10" text-anchor="middle" fill="#64748b">1991-92</text><rect x="147.5" y="206.1" width="35.0" height="163.9" fill="#0ea5e9" rx="2"/><text x="165.0" y="198.1" font-size="11" text-anchor="middle" fill="#0f172a" font-weight="600">2400</text><text x="165.0" y="386" font-size="10" text-anchor="middle" fill="#64748b">1992-93</text><rect x="217.5" y="320.8" width="35.0" height="49.2" fill="#0ea5e9" rx="2"/><text x="235.0" y="312.8" font-size="11" text-anchor="middle" fill="#0f172a" font-weight="600">720</text><text x="235.0" y="386" font-size="10" text-anchor="middle" fill="#64748b">1993-94</text><rect x="287.5" y="113.3" width="35.0" height="256.7" fill="#0ea5e9" rx="2"/><text x="305.0" y="105.3" font-size="11" text-anchor="middle" fill="#0f172a" font-weight="600">3760</text><text x="305.0" y="386" font-size="10" text-anchor="middle" fill="#64748b">1994-95</text><rect x="357.5" y="246.4" width="35.0" height="123.6" fill="#0ea5e9" rx="2"/><text x="375.0" y="238.4" font-size="11" text-anchor="middle" fill="#0f172a" font-weight="600">1810</text><text x="375.0" y="386" font-size="10" text-anchor="middle" fill="#64748b">1995-96</text><rect x="427.5" y="74.3" width="35.0" height="295.7" fill="#0ea5e9" rx="2"/><text x="445.0" y="66.3" font-size="11" text-anchor="middle" fill="#0f172a" font-weight="600">4330</text><text x="445.0" y="386" font-size="10" text-anchor="middle" fill="#64748b">1996-97</text><rect x="497.5" y="280.6" width="35.0" height="89.4" fill="#0ea5e9" rx="2"/><text x="515.0" y="272.6" font-size="11" text-anchor="middle" fill="#0f172a" font-weight="600">1310</text><text x="515.0" y="386" font-size="10" text-anchor="middle" fill="#64748b">1997-98</text><rect x="567.5" y="277.1" width="35.0" height="92.9" fill="#0ea5e9" rx="2"/><text x="585.0" y="269.1" font-size="11" text-anchor="middle" fill="#0f172a" font-weight="600">1360</text><text x="585.0" y="386" font-size="10" text-anchor="middle" fill="#64748b">1998-99</text>
            </svg>